<svg width="19" height="19" viewBox="0 0 19 19" fill="none" xmlns="http://www.w3.org/2000/svg">
<path d="M18.1365 0H11.2274C10.7504 0 10.3637 0.386683 10.3637 0.863654C10.3637 1.34062 10.7504 1.72731 11.2274 1.72731H16.0515L7.16213 10.6167C6.82484 10.954 6.82484 11.5008 7.16213 11.8381C7.33072 12.0067 7.55175 12.091 7.77277 12.091C7.9938 12.091 8.21486 12.0067 8.38349 11.838L17.2729 2.94866V7.77281C17.2729 8.24978 17.6596 8.63646 18.1365 8.63646C18.6135 8.63646 19.0002 8.24978 19.0002 7.77281V0.863654C19.0002 0.386683 18.6135 0 18.1365 0Z" fill="#F49910"/>
<path d="M14.6819 8.63638C14.205 8.63638 13.8183 9.02306 13.8183 9.50003V17.2728H1.72727V5.1818H9.50008C9.97705 5.1818 10.3637 4.79512 10.3637 4.31815C10.3637 3.84117 9.97705 3.45453 9.50008 3.45453H0.863654C0.386683 3.45453 0 3.84121 0 4.31818V18.1365C0 18.6134 0.386683 19.0001 0.863654 19.0001H14.682C15.1589 19.0001 15.5456 18.6134 15.5456 18.1365V9.50003C15.5456 9.02306 15.1589 8.63638 14.6819 8.63638Z" fill="#F49910"/>
</svg>
