<svg width="205" height="41" viewBox="0 0 205 41" fill="none" xmlns="http://www.w3.org/2000/svg">
<path d="M2.9762 2.92859H45.8333" stroke="#F49910" stroke-width="5" stroke-linecap="round" stroke-linejoin="round"/>
<path d="M2.9762 2.92859V38.0714" stroke="#F49910" stroke-width="5" stroke-linecap="round"/>
<path d="M19.5225 33.4265L12 20.9756" stroke="#F49910" stroke-width="5" stroke-linecap="round" stroke-linejoin="round"/>
<path d="M20.1122 33.6611L43.3933 10" stroke="#F49910" stroke-width="5" stroke-linecap="round"/>
<path d="M64.1172 30.144C62.4532 30.144 60.9492 29.776 59.6052 29.04C58.2772 28.304 57.2292 27.288 56.4612 25.992C55.7092 24.68 55.3332 23.216 55.3332 21.6C55.3332 19.984 55.7092 18.528 56.4612 17.232C57.2292 15.92 58.2852 14.896 59.6292 14.16C60.9732 13.424 62.4772 13.056 64.1412 13.056C65.3892 13.056 66.5412 13.264 67.5972 13.68C68.6532 14.096 69.5492 14.704 70.2852 15.504L69.1572 16.632C67.8452 15.304 66.1892 14.64 64.1892 14.64C62.8612 14.64 61.6532 14.944 60.5652 15.552C59.4772 16.16 58.6212 16.992 57.9972 18.048C57.3892 19.104 57.0852 20.288 57.0852 21.6C57.0852 22.912 57.3892 24.096 57.9972 25.152C58.6212 26.208 59.4772 27.04 60.5652 27.648C61.6532 28.256 62.8612 28.56 64.1892 28.56C66.2052 28.56 67.8612 27.888 69.1572 26.544L70.2852 27.672C69.5492 28.472 68.6452 29.088 67.5732 29.52C66.5172 29.936 65.3652 30.144 64.1172 30.144ZM96.5112 13.2V30H94.7592V22.248H84.2472V30H82.4712V13.2H84.2472V20.688H94.7592V13.2H96.5112ZM115.603 22.104L112.171 25.584V30H110.395V13.2H112.171V23.352L122.035 13.2H124.075L116.803 20.808L124.579 30H122.467L115.603 22.104ZM135.857 13.2H137.633V28.464H147.041V30H135.857V13.2ZM162.834 30.144C161.586 30.144 160.386 29.944 159.234 29.544C158.098 29.144 157.218 28.616 156.594 27.96L157.29 26.592C157.898 27.2 158.706 27.696 159.714 28.08C160.722 28.448 161.762 28.632 162.834 28.632C164.338 28.632 165.466 28.36 166.218 27.816C166.97 27.256 167.346 26.536 167.346 25.656C167.346 24.984 167.138 24.448 166.722 24.048C166.322 23.648 165.826 23.344 165.234 23.136C164.642 22.912 163.818 22.672 162.762 22.416C161.498 22.096 160.49 21.792 159.738 21.504C158.986 21.2 158.338 20.744 157.794 20.136C157.266 19.528 157.002 18.704 157.002 17.664C157.002 16.816 157.226 16.048 157.674 15.36C158.122 14.656 158.81 14.096 159.738 13.68C160.666 13.264 161.818 13.056 163.194 13.056C164.154 13.056 165.09 13.192 166.002 13.464C166.93 13.72 167.73 14.08 168.402 14.544L167.802 15.96C167.098 15.496 166.346 15.152 165.546 14.928C164.746 14.688 163.962 14.568 163.194 14.568C161.722 14.568 160.61 14.856 159.858 15.432C159.122 15.992 158.754 16.72 158.754 17.616C158.754 18.288 158.954 18.832 159.354 19.248C159.77 19.648 160.282 19.96 160.89 20.184C161.514 20.392 162.346 20.624 163.386 20.88C164.618 21.184 165.61 21.488 166.362 21.792C167.13 22.08 167.778 22.528 168.306 23.136C168.834 23.728 169.098 24.536 169.098 25.56C169.098 26.408 168.866 27.184 168.402 27.888C167.954 28.576 167.258 29.128 166.314 29.544C165.37 29.944 164.21 30.144 162.834 30.144ZM184.398 14.736H178.494V13.2H192.078V14.736H186.174V30H184.398V14.736ZM202.373 30.12C202.021 30.12 201.717 29.992 201.461 29.736C201.221 29.48 201.101 29.168 201.101 28.8C201.101 28.432 201.221 28.128 201.461 27.888C201.717 27.632 202.021 27.504 202.373 27.504C202.725 27.504 203.029 27.632 203.285 27.888C203.541 28.128 203.669 28.432 203.669 28.8C203.669 29.168 203.541 29.48 203.285 29.736C203.029 29.992 202.725 30.12 202.373 30.12Z" fill="white"/>
</svg>
